<?xml version="1.0" encoding="UTF-8" standalone="no"?>
<!DOCTYPE svg PUBLIC "-//W3C//DTD SVG 1.1//EN" "http://www.w3.org/Graphics/SVG/1.1/DTD/svg11.dtd">
<svg width="100%" height="100%" viewBox="0 0 1182 1182" version="1.1" xmlns="http://www.w3.org/2000/svg" xmlns:xlink="http://www.w3.org/1999/xlink" xml:space="preserve" style="fill-rule:evenodd;clip-rule:evenodd;stroke-linecap:round;stroke-linejoin:round;stroke-miterlimit:1.41421;">
    <g transform="matrix(1.2508,3.38062e-17,3.38062e-17,1.11277,-209.911,-102.734)">
        <ellipse cx="639.961" cy="623.025" rx="424.926" ry="477.632" style="fill:black;stroke-width:59.84px;stroke:rgb(0,80,155);"/>
    </g>
    <g transform="matrix(0.368632,-4.94249e-17,-1.82196e-17,1.20179,367.283,25.5603)">
        <path d="M926.069,525.915C868.406,525.915 821.591,509.401 821.591,489.06L389.745,489.06C389.745,509.401 342.93,525.915 285.266,525.915C342.93,525.915 389.745,542.428 389.745,562.769L821.591,562.769C821.591,542.428 868.406,525.915 926.069,525.915Z" style="fill:rgb(0,80,155);"/>
    </g>
    <g>
        <g id="Left" transform="matrix(0.5944,-0.216344,0.438836,1.20569,167.421,-113.012)">
            <path d="M524.163,356.682C524.163,337.63 492.788,322.162 454.143,322.162C415.497,322.162 384.122,337.63 384.122,356.682L384.122,885.986C384.122,905.038 415.497,920.505 454.143,920.505C492.788,920.505 524.163,905.038 524.163,885.986L524.163,356.682Z" style="fill:rgb(0,106,206);"/>
        </g>
        <g id="Right" transform="matrix(0.5944,0.216344,-0.438836,1.20569,473.796,-309.514)">
            <path d="M524.163,356.682C524.163,337.63 492.788,322.162 454.143,322.162C415.497,322.162 384.122,337.63 384.122,356.682L384.122,885.986C384.122,905.038 415.497,920.505 454.143,920.505C492.788,920.505 524.163,905.038 524.163,885.986L524.163,356.682Z" style="fill:rgb(0,106,206);"/>
        </g>
    </g>
</svg>
